<svg width="16" height="14" viewBox="0 0 16 14" fill="none" xmlns="http://www.w3.org/2000/svg">
<path d="M15.3337 7L13.707 5.14L13.9337 2.68L11.527 2.13333L10.267 0L8.00033 0.973333L5.73366 0L4.47366 2.12667L2.06699 2.66667L2.29366 5.13333L0.666992 7L2.29366 8.86L2.06699 11.3267L4.47366 11.8733L5.73366 14L8.00033 13.02L10.267 13.9933L11.527 11.8667L13.9337 11.32L13.707 8.86L15.3337 7ZM6.25366 9.67333L4.66699 8.07333C4.40699 7.81333 4.40699 7.39333 4.66699 7.13333L4.71366 7.08667C4.97366 6.82667 5.40033 6.82667 5.66033 7.08667L6.73366 8.16667L10.167 4.72667C10.427 4.46667 10.8537 4.46667 11.1137 4.72667L11.1603 4.77333C11.4203 5.03333 11.4203 5.45333 11.1603 5.71333L7.21366 9.67333C6.94033 9.93333 6.52033 9.93333 6.25366 9.67333Z" fill="#00ffff"/>
</svg>
