<?xml version="1.0" standalone="no"?>
<!DOCTYPE svg PUBLIC "-//W3C//DTD SVG 20010904//EN"
 "http://www.w3.org/TR/2001/REC-SVG-20010904/DTD/svg10.dtd">
<svg version="1.0" xmlns="http://www.w3.org/2000/svg"
 width="1200.000000pt" height="1200.000000pt" viewBox="0 0 1200.000000 1200.000000"
 preserveAspectRatio="xMidYMid meet">
<metadata>
Created by potrace 1.14, written by Peter Selinger 2001-2017
</metadata>
<g transform="translate(0.000000,1200.000000) scale(0.100000,-0.100000)"
fill="#000000" stroke="none">
<path d="M3206 7109 c-200 -21 -374 -70 -515 -145 -253 -134 -387 -330 -408
-594 -15 -194 60 -344 225 -454 116 -76 215 -112 527 -189 255 -64 315 -94
315 -160 0 -93 -173 -141 -427 -117 -191 17 -365 65 -550 150 l-82 38 -145
-261 -145 -262 27 -17 c94 -59 363 -140 577 -173 145 -23 435 -30 580 -15 232
23 448 94 599 194 213 142 326 343 326 583 0 151 -43 250 -150 346 -108 98
-225 146 -534 222 -252 61 -322 85 -360 120 -56 52 -19 127 82 166 46 18 83
23 199 27 216 7 386 -28 568 -114 39 -18 73 -30 77 -26 4 4 66 120 138 257
148 284 146 254 25 304 -253 106 -632 153 -949 120z"/>
<path d="M4645 7058 c-5 -15 -445 -2093 -445 -2102 0 -3 170 -6 378 -6 l377 0
223 1053 c122 578 222 1055 222 1060 0 4 -169 7 -375 7 -292 0 -377 -3 -380
-12z"/>
<path d="M5770 7063 c0 -5 -101 -480 -223 -1058 l-223 -1050 374 -3 c206 -1
377 0 379 2 3 2 27 109 54 238 27 128 51 243 54 255 5 21 8 21 307 25 262 4
318 8 411 27 244 50 418 134 565 275 168 161 246 347 245 591 0 140 -16 215
-70 318 -85 161 -241 276 -455 336 -160 45 -257 51 -855 51 -310 0 -563 -3
-563 -7z m1015 -558 c118 -31 171 -104 163 -224 -6 -76 -31 -131 -80 -177 -73
-69 -140 -84 -378 -84 -148 0 -180 2 -180 14 0 8 23 119 50 246 28 127 50 234
50 236 0 2 71 4 158 4 110 0 176 -5 217 -15z"/>
<path d="M8370 6559 c-294 -275 -547 -513 -563 -528 l-27 -27 556 -522 557
-522 448 0 c247 0 449 2 449 4 0 2 -170 163 -377 357 l-377 354 482 3 482 2 0
300 0 300 -506 0 c-278 0 -504 4 -502 8 2 4 184 178 406 386 221 208 402 379
402 382 0 2 -202 4 -448 4 l-448 0 -534 -501z"/>
</g>
</svg>
