<svg width="40" height="40" viewBox="0 0 40 40" fill="none" xmlns="http://www.w3.org/2000/svg">
<path d="M15.3333 9.5C12.1122 9.5 9.5 12.1122 9.5 15.3333V24.6667C9.5 27.8878 12.1122 30.5 15.3333 30.5H24.6667C27.8878 30.5 30.5 27.8878 30.5 24.6667V15.3333C30.5 12.1122 27.8878 9.5 24.6667 9.5H15.3333ZM27 11.8333C27.644 11.8333 28.1667 12.356 28.1667 13C28.1667 13.644 27.644 14.1667 27 14.1667C26.356 14.1667 25.8333 13.644 25.8333 13C25.8333 12.356 26.356 11.8333 27 11.8333ZM20 14.1667C23.2212 14.1667 25.8333 16.7788 25.8333 20C25.8333 23.2212 23.2212 25.8333 20 25.8333C16.7788 25.8333 14.1667 23.2212 14.1667 20C14.1667 16.7788 16.7788 14.1667 20 14.1667ZM20 16.5C19.0717 16.5 18.1815 16.8687 17.5251 17.5251C16.8687 18.1815 16.5 19.0717 16.5 20C16.5 20.9283 16.8687 21.8185 17.5251 22.4749C18.1815 23.1313 19.0717 23.5 20 23.5C20.9283 23.5 21.8185 23.1313 22.4749 22.4749C23.1313 21.8185 23.5 20.9283 23.5 20C23.5 19.0717 23.1313 18.1815 22.4749 17.5251C21.8185 16.8687 20.9283 16.5 20 16.5Z" fill="#131518"/>
</svg>
