<svg viewBox="0 0 28 28" fill="none" xmlns="http://www.w3.org/2000/svg">
<path d="M22.1667 3.5H5.83333C4.54417 3.5 3.5 4.54417 3.5 5.83333V22.1667C3.5 23.4558 4.54417 24.5 5.83333 24.5H22.1667C23.4558 24.5 24.5 23.4558 24.5 22.1667V5.83333C24.5 4.54417 23.4558 3.5 22.1667 3.5ZM9.02767 19.8333C8.2145 19.8333 7.55533 19.1742 7.55533 18.361V13.1378C7.5565 12.3258 8.21567 11.6667 9.02767 11.6667C9.84083 11.6667 10.5 12.3258 10.5 13.139V18.3622C10.5 19.1742 9.84083 19.8333 9.02767 19.8333ZM8.97633 10.1698C8.07683 10.1698 7.476 9.57017 7.476 8.76983C7.476 7.9695 8.07567 7.36983 9.0755 7.36983C9.975 7.36983 10.5758 7.9695 10.5758 8.76983C10.5758 9.57017 9.97617 10.1698 8.97633 10.1698ZM19.5755 19.8333C18.7892 19.8333 18.151 19.1952 18.151 18.4088V15.3697C18.151 14.1353 17.3915 14 17.1068 14C16.8222 14 15.8725 14.0408 15.8725 15.3697V18.4088C15.8725 19.1952 15.2343 19.8333 14.448 19.8333H14.3535C13.5672 19.8333 12.929 19.1952 12.929 18.4088V13.139C12.929 12.3258 13.5882 11.6667 14.4013 11.6667C15.2145 11.6667 15.8737 12.3258 15.8737 13.139C15.8737 13.139 16.2027 11.6667 18.438 11.6667C19.8602 11.6667 21 12.8065 21 15.3697V18.4088C21 19.1952 20.3618 19.8333 19.5755 19.8333Z" fill="white"/>
</svg>
