<svg width="40" height="40" viewBox="0 0 40 40" fill="none" xmlns="http://www.w3.org/2000/svg">
<path d="M28.1667 9.5H11.8333C10.5442 9.5 9.5 10.5442 9.5 11.8333V28.1667C9.5 29.4558 10.5442 30.5 11.8333 30.5H28.1667C29.4558 30.5 30.5 29.4558 30.5 28.1667V11.8333C30.5 10.5442 29.4558 9.5 28.1667 9.5ZM15.0277 25.8333C14.2145 25.8333 13.5553 25.1742 13.5553 24.361V19.1378C13.5565 18.3258 14.2157 17.6667 15.0277 17.6667C15.8408 17.6667 16.5 18.3258 16.5 19.139V24.3622C16.5 25.1742 15.8408 25.8333 15.0277 25.8333ZM14.9763 16.1698C14.0768 16.1698 13.476 15.5702 13.476 14.7698C13.476 13.9695 14.0757 13.3698 15.0755 13.3698C15.975 13.3698 16.5758 13.9695 16.5758 14.7698C16.5758 15.5702 15.9762 16.1698 14.9763 16.1698ZM25.5755 25.8333C24.7892 25.8333 24.151 25.1952 24.151 24.4088V21.3697C24.151 20.1353 23.3915 20 23.1068 20C22.8222 20 21.8725 20.0408 21.8725 21.3697V24.4088C21.8725 25.1952 21.2343 25.8333 20.448 25.8333H20.3535C19.5672 25.8333 18.929 25.1952 18.929 24.4088V19.139C18.929 18.3258 19.5882 17.6667 20.4013 17.6667C21.2145 17.6667 21.8737 18.3258 21.8737 19.139C21.8737 19.139 22.2027 17.6667 24.438 17.6667C25.8602 17.6667 27 18.8065 27 21.3697V24.4088C27 25.1952 26.3618 25.8333 25.5755 25.8333Z" fill="#131518"/>
</svg>
