<svg width="72" height="52" viewBox="0 0 72 52" fill="none" xmlns="http://www.w3.org/2000/svg">
<path d="M8.7765 36C15.0909 36 19.0302 33.1311 19.0302 28.8689C19.0302 22.9672 9.35581 24.306 9.35581 22.2022C9.35581 21.5464 10.3406 20.918 12.3392 20.918C14.3089 20.918 16.2785 21.3825 17.9006 22.3388L20.3626 17.6393C18.4799 16.5738 15.7861 16 12.7737 16C6.37238 16 2.51999 18.8415 2.51999 23.1858C2.51999 29.1148 12.1654 27.9399 12.1654 29.9617C12.1654 30.6448 11.2386 31.082 9.47167 31.082C7.21237 31.082 4.89514 30.5355 2.63585 29.306L0 34.0601C1.94068 35.1803 5.15583 36 8.7765 36Z" fill="#00ffff"/>
<path d="M19.7609 35.5628H26.5968L30.6519 16.4372H23.8161L19.7609 35.5628Z" fill="#00ffff"/>
<path d="M42.9509 16.4372H33.9426L29.8875 35.5628H36.7233L37.7081 30.8634H41.2129C47.4405 30.8634 51.4667 27.612 51.4667 22.776C51.4667 18.7869 48.3963 16.4372 42.9509 16.4372ZM41.5605 25.8907H38.7509L39.7067 21.4098H41.995C43.5591 21.4098 44.544 21.9836 44.544 23.3497C44.544 24.9617 43.4433 25.8907 41.5605 25.8907Z" fill="#00ffff"/>
<path fill-rule="evenodd" clip-rule="evenodd" d="M70.3266 16.5128H62.1541L52 26.0386L62.0718 35.4872H70.2444L63.3027 28.9751H72V23.5539H62.8212L70.3266 16.5128Z" fill="#00ffff"/>
</svg>
