<svg viewBox="0 0 28 28" fill="none" xmlns="http://www.w3.org/2000/svg">
<path d="M25.1787 7.21708C24.9103 6.21375 24.1193 5.42275 23.116 5.15441C21.296 4.66675 13.9997 4.66675 13.9997 4.66675C13.9997 4.66675 6.70334 4.66675 4.88334 5.15441C3.88001 5.42275 3.08901 6.21375 2.82067 7.21708C2.33301 9.03708 2.33301 14.0001 2.33301 14.0001C2.33301 14.0001 2.33301 18.9631 2.82067 20.7831C3.08901 21.7864 3.88001 22.5774 4.88334 22.8457C6.70334 23.3334 13.9997 23.3334 13.9997 23.3334C13.9997 23.3334 21.296 23.3334 23.116 22.8457C24.1205 22.5774 24.9103 21.7864 25.1787 20.7831C25.6663 18.9631 25.6663 14.0001 25.6663 14.0001C25.6663 14.0001 25.6663 9.03708 25.1787 7.21708ZM11.6663 17.0311V10.9691C11.6663 10.5199 12.1528 10.2399 12.5413 10.4639L17.7913 13.4949C18.1798 13.7189 18.1798 14.2812 17.7913 14.5052L12.5413 17.5362C12.1528 17.7614 11.6663 17.4802 11.6663 17.0311Z" fill="white"/>
</svg>
