<svg viewBox="0 0 20 21" fill="none" xmlns="http://www.w3.org/2000/svg">
<path d="M19.5 15.7727C19.5 18.1074 17.6074 20 15.2728 20H4.72721C2.39255 20 0.5 18.1074 0.5 15.7727V5.22727C0.5 2.89269 2.39255 1 4.72721 1H15.2728C17.6074 1 19.5 2.89269 19.5 5.22727V15.7727Z" fill="white"/>
<path d="M13.7166 12.0107H12.9182V10.2197C12.9182 9.80761 12.6764 9.58602 12.3054 9.58602C11.8906 9.58602 11.6247 9.83802 11.6247 10.3489V12.0107H10.8259V7.63034H11.6247V9.27795C11.816 8.98874 12.1257 8.84735 12.5465 8.84735C12.8872 8.84735 13.1656 8.95808 13.382 9.1857C13.605 9.41358 13.7166 9.72113 13.7166 10.1212V12.0107ZM7.97569 11.2631C8.5649 11.2631 9.06856 10.9126 9.22044 10.3711H10.0912C9.87844 11.4135 9.06249 12.0965 7.97569 12.0965C6.71287 12.0965 5.71149 11.16 5.71149 9.8565C5.71149 8.55301 6.71287 7.61648 7.97569 7.61648C9.07333 7.61648 9.89508 8.31345 10.0977 9.3738H9.22896C9.09695 8.79744 8.57574 8.43804 7.97569 8.43804C7.12658 8.43804 6.56163 9.04045 6.56163 9.8565C6.56163 10.6731 7.20375 11.2631 7.97569 11.2631ZM9.99019 4.33626C6.67106 4.33626 3.98101 6.81057 3.98101 9.86279C3.98101 12.1169 4.93064 13.1932 6.23115 14.1741L6.23721 14.177V16.8223C6.23721 16.9474 6.38045 17.0186 6.48123 16.944L8.75976 15.2613L8.80892 15.2823C9.19076 15.3524 9.58564 15.3894 9.99019 15.3894C13.3089 15.3894 15.999 12.915 15.999 9.86279C15.999 6.81057 13.3089 4.33626 9.99019 4.33626Z" fill="#1A202C"/>
</svg>
