<svg width="72" height="20" viewBox="0 0 72 20" fill="none" xmlns="http://www.w3.org/2000/svg">
<path d="M8.7765 20C15.0909 20 19.0302 17.1311 19.0302 12.8689C19.0302 6.96721 9.35581 8.30601 9.35581 6.20219C9.35581 5.54645 10.3406 4.91803 12.3392 4.91803C14.3089 4.91803 16.2785 5.38251 17.9006 6.3388L20.3626 1.63934C18.4799 0.57377 15.7861 0 12.7737 0C6.37238 0 2.51999 2.84153 2.51999 7.18579C2.51999 13.1148 12.1654 11.9399 12.1654 13.9617C12.1654 14.6448 11.2386 15.082 9.47167 15.082C7.21237 15.082 4.89514 14.5355 2.63585 13.306L0 18.0601C1.94068 19.1803 5.15583 20 8.7765 20Z" fill="url(#paint0_linear_269_1421)"/>
<path d="M19.7609 19.5628H26.5968L30.6519 0.437158H23.8161L19.7609 19.5628Z" fill="url(#paint1_linear_269_1421)"/>
<path d="M42.9509 0.437158H33.9426L29.8875 19.5628H36.7233L37.7081 14.8634H41.2129C47.4405 14.8634 51.4667 11.612 51.4667 6.77596C51.4667 2.78689 48.3963 0.437158 42.9509 0.437158ZM41.5605 9.89071H38.7509L39.7067 5.40984H41.995C43.5591 5.40984 44.544 5.98361 44.544 7.34973C44.544 8.96175 43.4433 9.89071 41.5605 9.89071Z" fill="url(#paint2_linear_269_1421)"/>
<path fill-rule="evenodd" clip-rule="evenodd" d="M70.3266 0.512822H62.1541L52 10.0386L62.0718 19.4872H70.2444L63.3027 12.9751H72V7.55385H62.8212L70.3266 0.512822Z" fill="url(#paint3_linear_269_1421)"/>
<defs>
<linearGradient id="paint0_linear_269_1421" x1="72" y1="-1.19209e-06" x2="61.6848" y2="37.1347" gradientUnits="userSpaceOnUse">
<stop stop-color="#FF4500"/>
<stop offset="1" stop-color="#FFB24D"/>
</linearGradient>
<linearGradient id="paint1_linear_269_1421" x1="72" y1="-1.19209e-06" x2="61.6848" y2="37.1347" gradientUnits="userSpaceOnUse">
<stop stop-color="#FF4500"/>
<stop offset="1" stop-color="#FFB24D"/>
</linearGradient>
<linearGradient id="paint2_linear_269_1421" x1="72" y1="-1.19209e-06" x2="61.6848" y2="37.1347" gradientUnits="userSpaceOnUse">
<stop stop-color="#FF4500"/>
<stop offset="1" stop-color="#FFB24D"/>
</linearGradient>
<linearGradient id="paint3_linear_269_1421" x1="72" y1="-1.19209e-06" x2="61.6848" y2="37.1347" gradientUnits="userSpaceOnUse">
<stop stop-color="#FF4500"/>
<stop offset="1" stop-color="#FFB24D"/>
</linearGradient>
</defs>
</svg>
