<svg viewBox="0 0 20 20" fill="none" xmlns="http://www.w3.org/2000/svg">
<g clip-path="url(#clip0_287_3248)">
<path d="M16.666 3.33334H3.33268C2.41602 3.33334 1.67435 4.08334 1.67435 5.00001L1.66602 15C1.66602 15.9167 2.41602 16.6667 3.33268 16.6667H16.666C17.5827 16.6667 18.3327 15.9167 18.3327 15V5.00001C18.3327 4.08334 17.5827 3.33334 16.666 3.33334ZM16.3327 6.87501L10.441 10.5583C10.1743 10.725 9.82435 10.725 9.55768 10.5583L3.66602 6.87501C3.45768 6.74168 3.33268 6.51668 3.33268 6.27501C3.33268 5.71668 3.94102 5.38334 4.41602 5.67501L9.99935 9.16668L15.5827 5.67501C16.0577 5.38334 16.666 5.71668 16.666 6.27501C16.666 6.51668 16.541 6.74168 16.3327 6.87501Z" fill="white"/>
</g>
<defs>
<clipPath id="clip0_287_3248">
<rect width="20" height="20" fill="white"/>
</clipPath>
</defs>
</svg>
