<svg width="32" height="32" viewBox="0 0 32 32" fill="none" xmlns="http://www.w3.org/2000/svg">
<g clip-path="url(#clip0_587_3973)">
<path d="M15.9993 2.66666C8.63935 2.66666 2.66602 8.63999 2.66602 16C2.66602 23.36 8.63935 29.3333 15.9993 29.3333C23.3593 29.3333 29.3327 23.36 29.3327 16C29.3327 8.63999 23.3593 2.66666 15.9993 2.66666ZM15.9993 6.66666C18.2127 6.66666 19.9993 8.45332 19.9993 10.6667C19.9993 12.88 18.2127 14.6667 15.9993 14.6667C13.786 14.6667 11.9993 12.88 11.9993 10.6667C11.9993 8.45332 13.786 6.66666 15.9993 6.66666ZM15.9993 25.6C12.666 25.6 9.71935 23.8933 7.99935 21.3067C8.03935 18.6533 13.3327 17.2 15.9993 17.2C18.6527 17.2 23.9593 18.6533 23.9993 21.3067C22.2793 23.8933 19.3327 25.6 15.9993 25.6Z" fill="white"/>
</g>
<defs>
<clipPath id="clip0_587_3973">
<rect width="32" height="32" fill="white"/>
</clipPath>
</defs>
</svg>
