<svg width="244" height="72" viewBox="0 0 244 72" fill="none" xmlns="http://www.w3.org/2000/svg">
<path d="M30.0156 71.5035C51.303 71.5035 64.5833 61.318 64.5833 46.1854C64.5833 25.2326 31.9685 29.9858 31.9685 22.5164C31.9685 20.1884 35.2886 17.9573 42.0264 17.9573C48.6665 17.9573 55.3067 19.6063 60.775 23.0015L69.0752 6.31679C62.728 2.53363 53.6466 0.496552 43.4911 0.496552C21.9107 0.496552 8.92338 10.585 8.92338 26.0086C8.92338 47.0585 41.4405 42.8873 41.4405 50.0656C41.4405 52.4907 38.3157 54.0427 32.3591 54.0427C24.7425 54.0427 16.9306 52.1027 9.31398 47.7375L0.427917 64.6162C6.9704 68.5933 17.8094 71.5035 30.0156 71.5035Z" fill="#111111"/>
<path d="M67.0467 69.9514H90.0918L103.763 2.04861H80.7175L67.0467 69.9514Z" fill="#111111"/>
<path d="M145.225 2.04861H114.857L101.186 69.9514H124.231L127.551 53.2667H139.366C160.361 53.2667 173.934 41.7232 173.934 24.5535C173.934 10.391 163.583 2.04861 145.225 2.04861ZM140.538 35.612H131.066L134.289 19.7033H142.003C147.276 19.7033 150.596 21.7404 150.596 26.5906C150.596 32.3139 146.885 35.612 140.538 35.612Z" fill="#111111"/>
<path fill-rule="evenodd" clip-rule="evenodd" d="M237.515 2.31723H209.964L175.732 36.137L209.687 69.6827H237.238L213.836 46.5626H243.157V27.3153H212.213L237.515 2.31723Z" fill="#111111"/>
</svg>
