<svg width="151" height="45" viewBox="0 0 151 45" fill="none" xmlns="http://www.w3.org/2000/svg">
<path d="M18.6362 44.6896C31.8534 44.6896 40.0989 38.3238 40.0989 28.8659C40.0989 15.7703 19.8488 18.7411 19.8488 14.0728C19.8488 12.6177 21.9102 11.2233 26.0936 11.2233C30.2164 11.2233 34.3392 12.2539 37.7344 14.3759L42.8879 3.94798C38.947 1.58351 33.3085 0.310333 27.0031 0.310333C13.604 0.310333 5.54036 6.61559 5.54036 16.2554C5.54036 29.4115 25.7298 26.8045 25.7298 31.291C25.7298 32.8067 23.7897 33.7767 20.0913 33.7767C15.3623 33.7767 10.5119 32.5641 5.78287 29.8359L0.265625 40.3851C4.32778 42.8708 11.0576 44.6896 18.6362 44.6896Z" fill="#111111"/>
<path d="M41.6284 43.7196H55.9369L64.4249 1.28037H50.1165L41.6284 43.7196Z" fill="#111111"/>
<path d="M90.1686 1.28037H71.313L62.8249 43.7196H77.1334L79.1948 33.2917H86.5309C99.5661 33.2917 107.994 26.077 107.994 15.3459C107.994 6.49434 101.567 1.28037 90.1686 1.28037ZM87.2584 22.2575H81.3774L83.3782 12.3146H88.1679C91.4418 12.3146 93.5032 13.5878 93.5032 16.6191C93.5032 20.1961 91.1993 22.2575 87.2584 22.2575Z" fill="#111111"/>
<path fill-rule="evenodd" clip-rule="evenodd" d="M147.47 1.44827H130.364L109.11 22.5856L130.192 43.5517H147.298L132.768 29.1016H150.973V17.0721H131.76L147.47 1.44827Z" fill="#111111"/>
</svg>
