<svg width="32" height="32" viewBox="0 0 32 32" fill="none" xmlns="http://www.w3.org/2000/svg">
<g clip-path="url(#clip0_44_171)">
<path d="M16 0.5C7.4 0.5 0.5 7.4 0.5 16C0.5 24.6 7.4 31.5 16 31.5C24.6 31.5 31.5 24.6 31.5 16C31.5 7.4 24.6 0.5 16 0.5ZM20.1 9.95C19.55 9.95 19.1 9.95 18.55 9.95C17.85 9.95 17.4 10.3 17.4 10.95C17.35 11.5 17.4 12.1 17.4 12.55C17.4 12.75 17.45 12.75 17.6 12.75C18.35 12.75 19.15 12.75 19.9 12.75C20.1 12.75 20.2 12.8 20.2 13.05C20.15 13.95 20 14.9 20 15.8C20 16 19.95 16 19.7 16C19.05 16 18.5 16 17.85 16C17.45 16 17.5 15.95 17.5 16.35C17.5 19.25 17.5 22 17.5 24.9C17.5 25.2 17.45 25.25 17.15 25.25C16.1 25.25 15.05 25.25 14 25.25C13.7 25.25 13.65 25.2 13.65 24.9C13.65 23.4 13.65 22 13.65 20.6C13.65 19.2 13.65 17.7 13.65 16.25C13.65 16.05 13.6 15.9 13.35 15.95C12.95 15.95 12.45 15.95 12 15.95C11.7 16.1 11.7 16 11.7 15.8C11.7 14.9 11.7 14.05 11.7 13.05C11.7 12.85 11.75 12.85 11.9 12.85C12.4 12.85 12.8 12.85 13.3 12.85C13.6 12.85 13.65 12.8 13.65 12.5C13.65 11.8 13.65 11.15 13.65 10.4C13.65 9.55 13.85 8.8 14.35 8.1C15 7.25 15.9 6.85 16.9 6.75C17.95 6.7 19 6.75 20.05 6.7C20.2 6.7 20.25 6.75 20.25 6.9C20.25 7.8 20.25 8.75 20.25 9.65C20.3 9.85 20.25 9.95 20.1 9.95Z" fill="#9C9C9C"/>
</g>
<defs>
<clipPath id="clip0_44_171">
<rect width="32" height="32" fill="white"/>
</clipPath>
</defs>
</svg>
