<svg width="40" height="40" viewBox="0 0 40 40" fill="none" xmlns="http://www.w3.org/2000/svg">
<path d="M18.7164 8.45001C13.3498 9.03335 9.0331 13.35 8.44977 18.6C7.86643 24.0833 11.0164 28.9833 15.7998 30.85C16.1498 30.9667 16.4998 30.7333 16.4998 30.2667V28.4C16.4998 28.4 16.0331 28.5167 15.4498 28.5167C13.8164 28.5167 13.1164 27.1167 12.9998 26.3C12.8831 25.8333 12.6498 25.4833 12.2998 25.1333C11.9498 25.0167 11.8331 25.0167 11.8331 24.9C11.8331 24.6667 12.1831 24.6667 12.2998 24.6667C12.9998 24.6667 13.5831 25.4833 13.8164 25.8333C14.3998 26.7667 15.0998 27 15.4498 27C15.9164 27 16.2664 26.8833 16.4998 26.7667C16.6164 25.95 16.9664 25.1333 17.6664 24.6667C14.9831 24.0833 12.9998 22.5667 12.9998 20C12.9998 18.7167 13.5831 17.4333 14.3998 16.5C14.2831 16.2667 14.1664 15.6833 14.1664 14.8667C14.1664 14.4 14.1664 13.8167 14.3998 13.35C14.3998 13.1167 14.6331 13 14.7498 13H14.8664C15.4498 13.1167 16.6164 13.4667 17.6664 14.5167C18.3664 14.2833 19.1831 14.1667 19.9998 14.1667C20.8164 14.1667 21.6331 14.2833 22.3331 14.5167C23.3831 13.4667 24.6664 13.1167 25.2498 13H25.3664C25.5998 13 25.7164 13.1167 25.8331 13.35C25.8331 13.8167 25.8331 14.4 25.8331 14.8667C25.8331 15.8 25.7164 16.2667 25.5998 16.5C26.4164 17.4333 26.9998 18.6 26.9998 20C26.9998 22.5667 25.0164 24.0833 22.3331 24.6667C23.0331 25.25 23.4998 26.3 23.4998 27.35V30.3833C23.4998 30.7333 23.8498 31.0833 24.3164 30.9667C28.6331 29.2167 31.6664 25.0167 31.6664 20.1167C31.6664 13.1167 25.7164 7.63335 18.7164 8.45001Z" fill="#131518"/>
</svg>
