<svg width="24" height="25" viewBox="0 0 24 25" fill="none" xmlns="http://www.w3.org/2000/svg">
<path d="M19 3.5H5C3.895 3.5 3 4.395 3 5.5V19.5C3 20.605 3.895 21.5 5 21.5H19C20.105 21.5 21 20.605 21 19.5V5.5C21 4.395 20.105 3.5 19 3.5ZM7.738 17.5C7.041 17.5 6.476 16.935 6.476 16.238V11.761C6.477 11.065 7.042 10.5 7.738 10.5C8.435 10.5 9 11.065 9 11.762V16.239C9 16.935 8.435 17.5 7.738 17.5ZM7.694 9.217C6.923 9.217 6.408 8.703 6.408 8.017C6.408 7.331 6.922 6.817 7.779 6.817C8.55 6.817 9.065 7.331 9.065 8.017C9.065 8.703 8.551 9.217 7.694 9.217ZM16.779 17.5C16.105 17.5 15.558 16.953 15.558 16.279V13.674C15.558 12.616 14.907 12.5 14.663 12.5C14.419 12.5 13.605 12.535 13.605 13.674V16.279C13.605 16.953 13.058 17.5 12.384 17.5H12.303C11.629 17.5 11.082 16.953 11.082 16.279V11.762C11.082 11.065 11.647 10.5 12.344 10.5C13.041 10.5 13.606 11.065 13.606 11.762C13.606 11.762 13.888 10.5 15.804 10.5C17.023 10.5 18 11.477 18 13.674V16.279C18 16.953 17.453 17.5 16.779 17.5Z" fill="#CBD5E0"/>
</svg>
