<svg width="32" height="32" viewBox="0 0 32 32" fill="none" xmlns="http://www.w3.org/2000/svg">
<g clip-path="url(#clip0_44_167)">
<path d="M31.45 9.6C31.4 8 31.1 6.85 30.75 5.8C30.4 4.75 29.85 3.9 29 3.05C28.15 2.2 27.3 1.7 26.3 1.3C25.3 0.9 24.2 0.65 22.5 0.6C20.75 0.5 20.25 0.5 16 0.5C11.75 0.5 11.3 0.5 9.6 0.55C7.9 0.6 6.85 0.9 5.8 1.25C4.75 1.6 3.9 2.2 3.05 3.05C2.2 3.9 1.65 4.75 1.3 5.8C0.9 6.8 0.65 7.9 0.6 9.6C0.55 11.3 0.5 11.75 0.5 16C0.5 20.25 0.5 20.7 0.55 22.4C0.6 24.1 0.9 25.15 1.25 26.2C1.6 27.25 2.15 28.1 3 28.95C3.85 29.8 4.75 30.35 5.75 30.7C6.75 31.05 7.85 31.35 9.55 31.4C11.25 31.5 11.7 31.5 15.95 31.5C20.2 31.5 20.65 31.5 22.35 31.45C24.05 31.4 25.1 31.1 26.15 30.75C27.2 30.4 28.05 29.85 28.9 29C29.75 28.15 30.3 27.25 30.65 26.25C31 25.25 31.3 24.15 31.35 22.45C31.4 20.85 31.4 20.35 31.4 16.1C31.4 11.85 31.5 11.3 31.45 9.6ZM28.65 22.25C28.6 23.75 28.3 24.55 28.1 25.15C27.8 25.85 27.45 26.4 26.9 26.9C26.35 27.45 25.85 27.75 25.15 28.1C24.6 28.3 23.8 28.6 22.25 28.65C20.65 28.65 20.15 28.65 16.05 28.65C11.95 28.65 11.4 28.65 9.8 28.6C8.3 28.55 7.5 28.25 6.9 28.05C6.2 27.75 5.65 27.4 5.15 26.85C4.6 26.3 4.3 25.8 3.95 25.1C3.75 24.55 3.45 23.75 3.4 22.2C3.4 20.65 3.4 20.15 3.4 16C3.4 11.85 3.4 11.35 3.45 9.75C3.5 8.25 3.8 7.45 4 6.85C4.3 6.15 4.65 5.6 5.15 5.1C5.7 4.55 6.2 4.25 6.9 3.95C7.45 3.75 8.25 3.45 9.8 3.4C11.4 3.35 11.9 3.35 16.05 3.35C20.2 3.35 20.7 3.35 22.3 3.4C23.8 3.45 24.6 3.75 25.2 3.95C25.9 4.25 26.45 4.6 26.95 5.1C27.5 5.65 27.8 6.15 28.15 6.85C28.35 7.4 28.65 8.2 28.7 9.75C28.75 11.35 28.75 11.85 28.75 16C28.75 20.15 28.7 20.65 28.65 22.25Z" fill="#9C9C9C"/>
<path d="M16.0008 8.0498C11.5508 8.0498 8.05078 11.6498 8.05078 15.9998C8.05078 20.4498 11.6508 23.9498 16.0008 23.9498C20.3508 23.9498 24.0008 20.4498 24.0008 15.9998C24.0008 11.5498 20.4508 8.0498 16.0008 8.0498ZM16.0008 21.1998C13.1008 21.1998 10.8008 18.8498 10.8008 15.9998C10.8008 13.1498 13.1508 10.7998 16.0008 10.7998C18.9008 10.7998 21.2008 13.0998 21.2008 15.9998C21.2008 18.8998 18.9008 21.1998 16.0008 21.1998Z" fill="#9C9C9C"/>
<path d="M24.35 9.5501C25.3718 9.5501 26.2 8.7218 26.2 7.7001C26.2 6.67835 25.3718 5.8501 24.35 5.8501C23.3283 5.8501 22.5 6.67835 22.5 7.7001C22.5 8.7218 23.3283 9.5501 24.35 9.5501Z" fill="#9C9C9C"/>
</g>
<defs>
<clipPath id="clip0_44_167">
<rect width="32" height="32" fill="white"/>
</clipPath>
</defs>
</svg>
