<svg width="20" height="20" viewBox="0 0 20 20" fill="none" xmlns="http://www.w3.org/2000/svg">
<path d="M19.5 15.2727C19.5 17.6074 17.6074 19.5 15.2728 19.5H4.72721C2.39255 19.5 0.5 17.6074 0.5 15.2727V4.72727C0.5 2.39269 2.39255 0.5 4.72721 0.5H15.2728C17.6074 0.5 19.5 2.39269 19.5 4.72727V15.2727Z" fill="white"/>
<path d="M13.7166 11.5107H12.9182V9.71974C12.9182 9.30761 12.6764 9.08602 12.3054 9.08602C11.8906 9.08602 11.6247 9.33802 11.6247 9.84895V11.5107H10.8259V7.13034H11.6247V8.77795C11.816 8.48874 12.1257 8.34735 12.5465 8.34735C12.8872 8.34735 13.1656 8.45808 13.382 8.6857C13.605 8.91358 13.7166 9.22113 13.7166 9.6212V11.5107ZM7.97569 10.7631C8.5649 10.7631 9.06856 10.4126 9.22044 9.87115H10.0912C9.87844 10.9135 9.06249 11.5965 7.97569 11.5965C6.71287 11.5965 5.71149 10.66 5.71149 9.3565C5.71149 8.05301 6.71287 7.11648 7.97569 7.11648C9.07333 7.11648 9.89508 7.81345 10.0977 8.8738H9.22896C9.09695 8.29744 8.57574 7.93804 7.97569 7.93804C7.12658 7.93804 6.56163 8.54045 6.56163 9.3565C6.56163 10.1731 7.20375 10.7631 7.97569 10.7631ZM9.99019 3.83626C6.67106 3.83626 3.98101 6.31057 3.98101 9.36279C3.98101 11.6169 4.93064 12.6932 6.23115 13.6741L6.23721 13.677V16.3223C6.23721 16.4474 6.38045 16.5186 6.48123 16.444L8.75976 14.7613L8.80892 14.7823C9.19076 14.8524 9.58564 14.8894 9.99019 14.8894C13.3089 14.8894 15.999 12.415 15.999 9.36279C15.999 6.31057 13.3089 3.83626 9.99019 3.83626Z" fill="#1A202C"/>
</svg>
