<svg width="109" height="32" viewBox="0 0 109 32" fill="none" xmlns="http://www.w3.org/2000/svg">
<path d="M13.3917 31.7793C22.8893 31.7793 28.8144 27.2525 28.8144 20.5269C28.8144 11.2145 14.263 13.327 14.263 10.0073C14.263 8.97262 15.7443 7.98102 18.7504 7.98102C21.713 7.98102 24.6755 8.71394 27.1153 10.2229L30.8185 2.80748C27.9866 1.12607 23.9349 0.220703 19.4039 0.220703C9.77564 0.220703 3.98124 4.70444 3.98124 11.5594C3.98124 20.9149 18.489 19.061 18.489 22.2514C18.489 23.3292 17.0949 24.019 14.4373 24.019C11.0391 24.019 7.55373 23.1568 4.15551 21.2167L0.190918 28.7183C3.1099 30.4859 7.94583 31.7793 13.3917 31.7793Z" fill="#01FF13"/>
<path d="M29.9134 31.0895H40.1952L46.2946 0.910508H36.0128L29.9134 31.0895Z" fill="#01FF13"/>
<path d="M64.7935 0.910508H51.2442L45.1448 31.0895H55.4266L56.9079 23.6741H62.1795C71.5464 23.6741 77.6022 18.5437 77.6022 10.9127C77.6022 4.61822 72.9841 0.910508 64.7935 0.910508ZM62.7023 15.8276H58.4763L59.914 8.75705H63.3558C65.7084 8.75705 67.1897 9.66242 67.1897 11.8181C67.1897 14.3617 65.5341 15.8276 62.7023 15.8276Z" fill="#01FF13"/>
<path fill-rule="evenodd" clip-rule="evenodd" d="M105.97 1.02988H93.6772L78.4044 16.0609L93.5535 30.9701H105.846L95.4049 20.6945H108.486V12.1401H94.6805L105.97 1.02988Z" fill="#01FF13"/>
</svg>
