<svg width="68" height="20" viewBox="0 0 68 20" fill="none" xmlns="http://www.w3.org/2000/svg">
<path d="M8.25048 19.7241C14.1865 19.7241 17.8897 16.8949 17.8897 12.6914C17.8897 6.87111 8.79507 8.19144 8.79507 6.11664C8.79507 5.46994 9.72087 4.8502 11.5997 4.8502C13.4513 4.8502 15.3029 5.30827 16.8277 6.25137L19.1422 1.61673C17.3723 0.565856 14.84 0 12.0081 0C5.99045 0 2.36895 2.80234 2.36895 7.08668C2.36895 12.9339 11.4363 11.7752 11.4363 13.7692C11.4363 14.4428 10.565 14.8739 8.90399 14.8739C6.7801 14.8739 4.60176 14.335 2.47787 13.1225L0 17.811C1.82436 18.9158 4.84682 19.7241 8.25048 19.7241Z" fill="#01FF13"/>
<path d="M18.5766 19.293H25.0027L28.8148 0.431128H22.3887L18.5766 19.293Z" fill="#01FF13"/>
<path d="M40.3766 0.431128H31.9083L28.0962 19.293H34.5223L35.4481 14.6584H38.7429C44.5972 14.6584 48.382 11.4519 48.382 6.68249C48.382 2.74845 45.4957 0.431128 40.3766 0.431128ZM39.0696 9.75429H36.4284L37.3269 5.33522H39.478C40.9484 5.33522 41.8742 5.90107 41.8742 7.24835C41.8742 8.83814 40.8395 9.75429 39.0696 9.75429Z" fill="#01FF13"/>
<path fill-rule="evenodd" clip-rule="evenodd" d="M66.2309 0.643677H58.5482L49.0027 10.0381L58.4709 19.3563H66.1536L59.628 12.9341H67.804V7.58759H59.1753L66.2309 0.643677Z" fill="#01FF13"/>
</svg>
