<svg width="304" height="90" viewBox="0 0 304 90" fill="none" xmlns="http://www.w3.org/2000/svg">
<path d="M37.5194 89.3793C64.1288 89.3793 80.7291 76.6476 80.7291 57.7318C80.7291 31.5407 39.9606 37.4822 39.9606 28.1456C39.9606 25.2355 44.1107 22.4466 52.5329 22.4466C60.8331 22.4466 69.1333 24.5079 75.9687 28.7518L86.3439 7.89599C78.4099 3.16705 67.0582 0.620697 54.3639 0.620697C27.3883 0.620697 11.1542 13.2312 11.1542 32.5108C11.1542 58.8231 51.8006 53.6091 51.8006 62.582C51.8006 65.6133 47.8946 67.5534 40.4489 67.5534C30.9281 67.5534 21.1632 65.1283 11.6424 59.6719L0.534851 80.7702C8.71295 85.7417 22.2618 89.3793 37.5194 89.3793Z" fill="#111111"/>
<path d="M83.8083 87.4392H112.615L129.703 2.56077H100.897L83.8083 87.4392Z" fill="#111111"/>
<path d="M181.532 2.56077H143.571L126.482 87.4392H155.288L159.439 66.5834H174.208C200.451 66.5834 217.418 52.154 217.418 30.6919C217.418 12.9887 204.479 2.56077 181.532 2.56077ZM175.673 44.515H163.833L167.861 24.6292H177.504C184.095 24.6292 188.245 27.1755 188.245 33.2383C188.245 40.3923 183.607 44.515 175.673 44.515Z" fill="#111111"/>
<path fill-rule="evenodd" clip-rule="evenodd" d="M296.894 2.89655H262.455L219.665 45.1712L262.108 87.1034H296.548L267.295 58.2033H303.946V34.1442H265.266L296.894 2.89655Z" fill="#111111"/>
</svg>
