<svg width="123" height="36" viewBox="0 0 123 36" fill="none" xmlns="http://www.w3.org/2000/svg">
<path d="M15.1588 35.7515C25.9096 35.7515 32.6166 30.6588 32.6166 23.0925C32.6166 12.6161 16.1451 14.9927 16.1451 11.258C16.1451 10.094 17.8219 8.97841 21.2246 8.97841C24.5781 8.97841 27.9316 9.80294 30.6933 11.5005L34.8851 3.15817C31.6796 1.26659 27.0932 0.248047 21.9644 0.248047C11.0656 0.248047 4.5066 5.29225 4.5066 13.0041C4.5066 23.529 20.9287 21.4434 20.9287 25.0326C20.9287 26.2451 19.3506 27.0211 16.3424 27.0211C12.4958 27.0211 8.55049 26.0511 4.70386 23.8685L0.216125 32.3079C3.52028 34.2964 8.99433 35.7515 15.1588 35.7515Z" fill="#9C9C9C"/>
<path d="M33.8606 34.9755H45.4992L52.4034 1.02408H40.7649L33.8606 34.9755Z" fill="#9C9C9C"/>
<path d="M73.3433 1.02408H58.0061L51.1019 34.9755H62.7404L64.4172 26.6331H70.3844C80.9873 26.6331 87.8421 20.8614 87.8421 12.2765C87.8421 5.19525 82.6147 1.02408 73.3433 1.02408ZM70.9762 17.8058H66.1925L67.8199 9.85144H71.7159C74.3789 9.85144 76.0557 10.87 76.0557 13.2951C76.0557 16.1567 74.1817 17.8058 70.9762 17.8058Z" fill="#9C9C9C"/>
<path fill-rule="evenodd" clip-rule="evenodd" d="M119.953 1.15869H106.038L88.7502 18.0686L105.898 34.8415H119.813L107.994 23.2814H122.802V13.6577H107.174L119.953 1.15869Z" fill="#9C9C9C"/>
</svg>
