<svg width="40" height="40" viewBox="0 0 40 40" fill="none" xmlns="http://www.w3.org/2000/svg">
<g clip-path="url(#clip0_415_150)">
<path d="M10.6667 27H29.3333C29.975 27 30.5 26.475 30.5 25.8333C30.5 25.1917 29.975 24.6667 29.3333 24.6667H10.6667C10.025 24.6667 9.5 25.1917 9.5 25.8333C9.5 26.475 10.025 27 10.6667 27ZM10.6667 21.1667H29.3333C29.975 21.1667 30.5 20.6417 30.5 20C30.5 19.3583 29.975 18.8333 29.3333 18.8333H10.6667C10.025 18.8333 9.5 19.3583 9.5 20C9.5 20.6417 10.025 21.1667 10.6667 21.1667ZM9.5 14.1667C9.5 14.8083 10.025 15.3333 10.6667 15.3333H29.3333C29.975 15.3333 30.5 14.8083 30.5 14.1667C30.5 13.525 29.975 13 29.3333 13H10.6667C10.025 13 9.5 13.525 9.5 14.1667Z" fill="white"/>
</g>
<defs>
<clipPath id="clip0_415_150">
<rect width="28" height="28" fill="white" transform="translate(6 6)"/>
</clipPath>
</defs>
</svg>
