<svg width="40" height="40" viewBox="0 0 40 40" fill="none" xmlns="http://www.w3.org/2000/svg">
<g clip-path="url(#clip0_42_308)">
<path d="M27.35 12.6617C26.895 12.2067 26.16 12.2067 25.705 12.6617L20 18.355L14.295 12.65C13.84 12.195 13.105 12.195 12.65 12.65C12.195 13.105 12.195 13.84 12.65 14.295L18.355 20L12.65 25.705C12.195 26.16 12.195 26.895 12.65 27.35C13.105 27.805 13.84 27.805 14.295 27.35L20 21.645L25.705 27.35C26.16 27.805 26.895 27.805 27.35 27.35C27.805 26.895 27.805 26.16 27.35 25.705L21.645 20L27.35 14.295C27.7934 13.8517 27.7934 13.105 27.35 12.6617Z" fill="white"/>
</g>
<defs>
<clipPath id="clip0_42_308">
<rect width="28" height="28" fill="white" transform="translate(6 6)"/>
</clipPath>
</defs>
</svg>
