<svg width="40" height="40" viewBox="0 0 40 40" fill="none" xmlns="http://www.w3.org/2000/svg">
<path d="M31.1792 13.217C30.9108 12.2137 30.1198 11.4227 29.1165 11.1544C27.2965 10.6667 20.0002 10.6667 20.0002 10.6667C20.0002 10.6667 12.7038 10.6667 10.8838 11.1544C9.8805 11.4227 9.0895 12.2137 8.82116 13.217C8.3335 15.037 8.3335 20 8.3335 20C8.3335 20 8.3335 24.963 8.82116 26.783C9.0895 27.7864 9.8805 28.5774 10.8838 28.8457C12.7038 29.3334 20.0002 29.3334 20.0002 29.3334C20.0002 29.3334 27.2965 29.3334 29.1165 28.8457C30.121 28.5774 30.9108 27.7864 31.1792 26.783C31.6668 24.963 31.6668 20 31.6668 20C31.6668 20 31.6668 15.037 31.1792 13.217ZM17.6668 23.031V16.969C17.6668 16.5199 18.1533 16.2399 18.5418 16.4639L23.7918 19.4949C24.1803 19.7189 24.1803 20.2812 23.7918 20.5052L18.5418 23.5362C18.1533 23.7614 17.6668 23.4802 17.6668 23.031Z" fill="#131518"/>
</svg>
